<?xml version="1.0" encoding="UTF-8" standalone="no"?>
<svg
   viewBox="0 0 24 24"
   fill="currentColor"
   version="1.1"
   id="svg2"
   sodipodi:docname="sound-off.svg"
   inkscape:version="1.4.4 (1:1.4.4+202605061436+dcaf3e7d9e)"
   xmlns:inkscape="http://www.inkscape.org/namespaces/inkscape"
   xmlns:sodipodi="http://sodipodi.sourceforge.net/DTD/sodipodi-0.dtd"
   xmlns="http://www.w3.org/2000/svg"
   xmlns:svg="http://www.w3.org/2000/svg">
  <defs
     id="defs2">
    <inkscape:path-effect
       effect="fillet_chamfer"
       id="path-effect2"
       is_visible="true"
       lpeversion="1"
       nodesatellites_param="F,0,0,1,0,1.9888337,0,1 @ F,0,0,1,0,1.0511438,0,1 @ F,0,0,1,0,2.6635236,0,1 @ F,0,0,1,0,2.6635236,0,1 @ F,0,0,1,0,1.0511438,0,1 @ F,0,1,1,0,1.9888337,0,1"
       radius="0"
       unit="px"
       method="auto"
       mode="F"
       chamfer_steps="1"
       flexible="false"
       use_knot_distance="true"
       apply_no_radius="true"
       apply_with_radius="true"
       only_selected="false"
       hide_knots="false" />
  </defs>
  <sodipodi:namedview
     id="namedview2"
     pagecolor="#ffffff"
     bordercolor="#000000"
     borderopacity="0.25"
     inkscape:showpageshadow="2"
     inkscape:pageopacity="0.0"
     inkscape:pagecheckerboard="0"
     inkscape:deskcolor="#d1d1d1"
     inkscape:zoom="33.583333"
     inkscape:cx="11.985112"
     inkscape:cy="12"
     inkscape:window-width="1854"
     inkscape:window-height="1011"
     inkscape:window-x="0"
     inkscape:window-y="0"
     inkscape:window-maximized="1"
     inkscape:current-layer="svg2" />
  <path
     d="M 4.9888337,9 H 6.9488562 A 2.8415123,2.8415123 159.69935 0 0 8.7980879,8.3159247 L 12.977702,4.7333982 A 1.2250475,1.2250475 24.699353 0 1 15,5.6635236 V 18.336476 a 1.2250475,1.2250475 155.30065 0 1 -2.022298,0.930126 L 8.7980879,15.684075 A 2.8415123,2.8415123 20.300647 0 0 6.9488562,15 H 4.9888337 A 1.9888337,1.9888337 45 0 1 3,13.011166 V 10.988834 A 1.9888337,1.9888337 135 0 1 4.9888337,9 Z"
     id="path1"
     inkscape:path-effect="#path-effect2"
     inkscape:original-d="M 3,9 H 8 L 15,3 V 21 L 8,15 H 3 Z"
     style="stroke:#000000;stroke-opacity:1;fill:none;stroke-width:2;stroke-dasharray:none" />
  <rect
     x="19.150991"
     y="-7.3646507"
     width="8"
     height="2.2"
     rx="1.1"
     transform="rotate(45)"
     id="rect1" />
  <rect
     x="2.2646496"
     y="22.050991"
     width="8"
     height="2.2"
     rx="1.1"
     transform="rotate(-45)"
     id="rect2" />
</svg>
