<?xml version="1.0" encoding="UTF-8" standalone="no"?>
<svg
   viewBox="0 0 24 24"
   fill="currentColor"
   version="1.1"
   id="svg3"
   sodipodi:docname="sound-on.svg"
   inkscape:version="1.4.4 (1:1.4.4+202605061436+dcaf3e7d9e)"
   xmlns:inkscape="http://www.inkscape.org/namespaces/inkscape"
   xmlns:sodipodi="http://sodipodi.sourceforge.net/DTD/sodipodi-0.dtd"
   xmlns="http://www.w3.org/2000/svg"
   xmlns:svg="http://www.w3.org/2000/svg">
  <defs
     id="defs3">
    <inkscape:path-effect
       effect="fillet_chamfer"
       id="path-effect4"
       is_visible="true"
       lpeversion="1"
       nodesatellites_param="F,0,1,1,0,0.78254947,0,1 @ F,0,1,1,0,0.78254947,0,1 @ F,0,0,1,0,0.78254947,0,1 @ F,0,1,1,0,0.78254947,0,1"
       radius="0"
       unit="px"
       method="auto"
       mode="F"
       chamfer_steps="1"
       flexible="false"
       use_knot_distance="true"
       apply_no_radius="true"
       apply_with_radius="true"
       only_selected="false"
       hide_knots="false" />
    <inkscape:path-effect
       effect="fillet_chamfer"
       id="path-effect3"
       is_visible="true"
       lpeversion="1"
       nodesatellites_param="F,0,1,1,0,0.84722916,0,1 @ F,0,1,1,0,0.84722916,0,1 @ F,0,1,1,0,0.84722916,0,1 @ F,0,1,1,0,0.84722916,0,1"
       radius="0"
       unit="px"
       method="auto"
       mode="F"
       chamfer_steps="1"
       flexible="false"
       use_knot_distance="true"
       apply_no_radius="true"
       apply_with_radius="true"
       only_selected="false"
       hide_knots="false" />
    <inkscape:path-effect
       effect="fillet_chamfer"
       id="path-effect2"
       is_visible="true"
       lpeversion="1"
       nodesatellites_param="F,0,0,1,0,1.9888337,0,1 @ F,0,0,1,0,1.0511438,0,1 @ F,0,0,1,0,2.6635236,0,1 @ F,0,0,1,0,2.6635236,0,1 @ F,0,0,1,0,1.0511438,0,1 @ F,0,1,1,0,1.9888337,0,1"
       radius="0"
       unit="px"
       method="auto"
       mode="F"
       chamfer_steps="1"
       flexible="false"
       use_knot_distance="true"
       apply_no_radius="true"
       apply_with_radius="true"
       only_selected="false"
       hide_knots="false" />
  </defs>
  <sodipodi:namedview
     id="namedview3"
     pagecolor="#ffffff"
     bordercolor="#000000"
     borderopacity="0.25"
     inkscape:showpageshadow="2"
     inkscape:pageopacity="0.0"
     inkscape:pagecheckerboard="0"
     inkscape:deskcolor="#d1d1d1"
     inkscape:zoom="33.583333"
     inkscape:cx="11.985112"
     inkscape:cy="12"
     inkscape:window-width="1854"
     inkscape:window-height="1011"
     inkscape:window-x="0"
     inkscape:window-y="0"
     inkscape:window-maximized="1"
     inkscape:current-layer="svg3" />
  <path
     d="m 17.862865,8.1407729 c 1.549514,1.8908231 1.549513,5.8276351 -2e-6,7.7184561 -0.273239,0.333425 -0.343995,0.814356 -0.07401,1.151839 l 0.22229,0.277864 c 0.269987,0.337483 0.772791,0.399786 1.05921,0.07701 2.239527,-2.523812 2.239527,-8.2080708 0,-10.7318824 -0.286419,-0.322777 -0.789223,-0.2604739 -1.05921,0.07701 l -0.22229,0.277863 c -0.269987,0.3374838 -0.19923,0.8184152 0.07401,1.1518414 z"
     id="path2"
     inkscape:path-effect="#path-effect4"
     inkscape:original-d="m 17.3,7.6 c 2.3,1.7 2.3,7.1 0,8.8 l 1.2,1.5 c 3,-2.3 3,-9.5 0,-11.8 z"
     transform="matrix(1.2718012,0,0,1,-2.8110906,0)" />
  <path
     d="m 16.279325,11.096692 c 0.186985,0.549296 0.187037,1.256768 1.58e-4,1.806153 -0.148543,0.436681 -0.222922,0.993352 0.06938,1.35873 l 0.14148,0.17685 c 0.292302,0.365378 0.84423,0.429184 1.095462,0.03739 0.845065,-1.317879 0.845064,-3.633754 -4e-6,-4.9516305 -0.251231,-0.391793 -0.803156,-0.3279844 -1.095458,0.037393 l -0.14148,0.1768504 c -0.292302,0.3653778 -0.218092,0.9218668 -0.06954,1.3582668 z"
     id="path3"
     inkscape:path-effect="#path-effect3"
     inkscape:original-d="m 15.819603,10.4 c 0.8,0.6 0.8,2.6 0,3.2 l 1.2,1.5 c 1.6,-1.2 1.6,-5 0,-6.2 z"
     transform="matrix(1.2718012,0,0,1,-3.1981874,0)" />
  <path
     d="M 4.9888337,9 H 6.9488562 A 2.8415123,2.8415123 159.69935 0 0 8.7980879,8.3159247 L 12.977702,4.7333982 A 1.2250475,1.2250475 24.699353 0 1 15,5.6635236 V 18.336476 a 1.2250475,1.2250475 155.30065 0 1 -2.022298,0.930126 L 8.7980879,15.684075 A 2.8415123,2.8415123 20.300647 0 0 6.9488562,15 H 4.9888337 A 1.9888337,1.9888337 45 0 1 3,13.011166 V 10.988834 A 1.9888337,1.9888337 135 0 1 4.9888337,9 Z"
     id="path1-3"
     inkscape:path-effect="#path-effect2"
     inkscape:original-d="M 3,9 H 8 L 15,3 V 21 L 8,15 H 3 Z"
     style="stroke:#000000;stroke-opacity:1;fill:none;stroke-width:2;stroke-dasharray:none" />
</svg>
